<svg xmlns="http://www.w3.org/2000/svg" xmlns:xlink="http://www.w3.org/1999/xlink" xmlns:sketch="http://www.bohemiancoding.com/sketch/ns" viewBox="0 0 100 100" version="1.1" x="0px" y="0px"><title>pokeball</title><description>Created with Sketch (http://www.bohemiancoding.com/sketch)</description><g stroke="none" stroke-width="1" fill="none" fill-rule="evenodd"><path d="M29.0316165,52 L7,52 C7.77376561,75.3269313 26.9532497,94 50.5,94 C74.0467503,94 93.2262344,75.3269313 94,52 L71.9683835,52 C71.2142815,63.184392 61.8907596,72.0232558 50.5,72.0232558 C39.1092404,72.0232558 29.7857185,63.184392 29.0316165,52 Z M50,100 C22.3857611,100 0,77.6142389 0,50 C0,22.3857611 22.3857611,0 50,0 C77.6142389,0 100,22.3857611 100,50 C100,77.6142389 77.6142389,100 50,100 Z M50,36 C42.2680131,36 36,42.2680131 36,50 C36,57.7319869 42.2680131,64 50,64 C57.7319869,64 64,57.7319869 64,50 C64,42.2680131 57.7319869,36 50,36 Z M50,36" fill="#000000"></path></g></svg>